<svg width="720" height="720" viewBox="0 0 720 720" fill="none" xmlns="http://www.w3.org/2000/svg">
<rect width="720" height="720" fill="#050505"/>
<path d="M369.34 100.139C369.34 100.799 369.34 101.459 369.34 102.139C369.957 102.165 370.575 102.191 371.211 102.217C372.058 102.274 372.905 102.331 373.777 102.389C375.013 102.459 375.013 102.459 376.273 102.53C379.788 103.228 382.626 104.545 385.862 106.048C390.141 107.933 394.582 109.324 399.027 110.764C399.938 111.063 400.849 111.362 401.787 111.671C405.386 112.852 408.987 114.025 412.59 115.194C415.653 116.247 418.645 117.435 421.652 118.639C426.196 120.411 430.525 121.814 435.34 122.585C437.34 123.139 437.34 123.139 439.578 124.507C443.085 126.58 446.683 127.826 450.527 129.139C451.284 129.403 452.04 129.666 452.82 129.938C456.801 131.312 460.79 132.604 464.84 133.764C468.699 134.88 472.24 136.361 475.883 138.046C479.794 139.787 483.803 141.263 487.804 142.784C493.355 144.912 498.867 147.134 504.382 149.354C505.735 149.897 507.089 150.437 508.444 150.976C515.845 153.921 523.212 156.949 530.577 159.983C532.741 160.875 534.907 161.765 537.072 162.655C544.862 165.861 552.637 169.098 560.398 172.371C561.264 172.736 562.13 173.101 563.022 173.476C565.128 174.364 567.234 175.251 569.34 176.139C569.665 187.501 569.914 198.861 570.065 210.226C570.138 215.505 570.236 220.781 570.396 226.058C570.549 231.161 570.632 236.262 570.668 241.367C570.694 243.304 570.744 245.241 570.82 247.177C571.421 263.107 571.421 263.107 566.292 269.347C563.404 272.401 560.276 275.078 557.004 277.709C554.542 279.825 552.688 282.19 550.715 284.764C546.99 289.483 542.933 293.663 538.649 297.862C535.246 301.203 532.07 304.651 528.98 308.28C527.178 310.322 525.28 312.228 523.34 314.139C520.15 317.286 517.175 320.545 514.254 323.94C511.988 326.543 509.667 329.091 507.34 331.639C499.935 339.761 499.935 339.761 492.902 348.202C490.878 350.522 488.972 352.395 486.652 354.382C482.599 357.893 478.675 361.52 474.777 365.202C473.371 366.525 471.965 367.848 470.558 369.171C469.503 370.164 469.503 370.164 468.426 371.178C464.603 374.772 460.764 378.349 456.927 381.927C453.754 384.886 450.584 387.846 447.418 390.811C436.644 400.896 436.644 400.896 431.402 405.577C421.587 414.36 411.923 423.345 402.746 432.796C400.744 434.746 398.706 436.568 396.59 438.389C392.122 442.265 387.982 446.422 383.84 450.639C379.873 454.678 375.934 458.687 371.621 462.358C365.529 467.599 359.985 473.427 354.34 479.139C341.422 492.21 341.422 492.21 335.173 497.529C331.681 500.596 328.468 503.949 325.215 507.264C320.757 511.807 316.311 516.159 311.34 520.139C312.506 523.64 313.115 523.899 316.179 525.706C316.987 526.187 317.794 526.668 318.626 527.163C319.938 527.925 319.938 527.925 321.277 528.702C322.617 529.492 322.617 529.492 323.985 530.297C330.005 533.827 336.063 537.291 342.152 540.702C342.873 541.107 343.594 541.512 344.337 541.929C353.757 547.312 353.757 547.312 364.34 548.139C368.237 546.874 371.963 545.281 375.715 543.639C376.782 543.181 377.849 542.722 378.948 542.25C382.085 540.894 385.213 539.518 388.34 538.139C389.144 537.793 389.947 537.447 390.776 537.09C407.639 529.817 423.516 520.249 437.34 508.139C439.15 506.699 440.962 505.262 442.777 503.827C453.775 494.784 462.865 484.543 471.34 473.139C471.964 472.311 472.587 471.482 473.23 470.628C482.416 457.986 489.313 444.907 494.34 430.139C494.827 428.855 495.318 427.573 495.812 426.292C497.551 421.681 498.972 416.996 500.34 412.264C500.608 411.351 500.877 410.438 501.153 409.497C502.629 404.295 503.667 399.271 504.268 393.901C505.412 383.921 508.9 378.633 515.922 371.602C518.103 369.352 520.018 366.905 521.965 364.452C525.54 360.056 529.281 355.849 533.097 351.663C535.385 349.089 537.555 346.446 539.715 343.764C542.959 339.751 546.327 335.915 549.84 332.139C555.548 326 561.139 319.694 565.965 312.827C566.418 312.27 566.872 311.713 567.34 311.139C568 311.139 568.66 311.139 569.34 311.139C569.806 371.882 566.081 427.237 537.34 482.139C537.01 482.799 536.68 483.459 536.34 484.139C535.68 484.139 535.02 484.139 534.34 484.139C534.191 484.688 534.043 485.237 533.89 485.803C532.048 491.989 529.288 496.665 525.465 501.827C524.948 502.547 524.431 503.267 523.898 504.009C515.679 515.364 515.679 515.364 511.965 517.514C508.803 519.471 506.892 521.786 504.508 524.612C501.776 527.796 498.939 530.874 496.09 533.952C495.57 534.515 495.05 535.078 494.515 535.658C493.129 537.157 491.735 538.649 490.34 540.139C489.767 540.762 489.195 541.385 488.605 542.026C487.34 543.139 487.34 543.139 485.34 543.139C485.095 543.718 484.85 544.297 484.597 544.893C481.988 549.553 477.372 552.723 473.34 556.139C472.748 556.642 472.156 557.145 471.546 557.663C462.228 565.526 452.619 572.591 442.34 579.139C441.305 579.81 440.269 580.48 439.203 581.171C422.471 591.945 404.739 601.274 386.666 609.573C385.75 609.999 384.834 610.424 383.89 610.862C383.083 611.231 382.275 611.6 381.442 611.979C379.297 613.034 379.297 613.034 377.774 614.719C375.472 616.998 372.405 617.263 369.34 618.139C367.714 619.598 367.714 619.598 366.34 621.139C362.219 623.367 359.845 623.223 355.34 622.139C351.664 620.709 348.1 619.059 344.527 617.389C343.475 616.901 342.422 616.412 341.338 615.908C308.536 600.517 277.337 582.246 249.34 559.139C248.486 558.44 248.486 558.44 247.615 557.726C235.779 547.966 225.071 537.084 214.34 526.139C215.822 522.699 217.76 520.474 220.405 517.84C221.256 516.988 222.107 516.136 222.984 515.258C223.919 514.331 224.855 513.404 225.819 512.449C226.813 511.457 227.807 510.464 228.8 509.471C230.94 507.335 233.082 505.202 235.227 503.071C238.624 499.696 242.014 496.314 245.403 492.932C250.771 487.575 256.143 482.224 261.517 476.875C271.124 467.312 280.725 457.744 290.321 448.171C293.685 444.815 297.052 441.462 300.421 438.112C302.526 436.017 304.629 433.921 306.732 431.824C308.159 430.402 309.588 428.983 311.018 427.563C315.469 423.12 319.785 418.629 323.865 413.84C326.263 411.075 328.857 408.517 331.465 405.952C332.291 405.132 332.291 405.132 333.133 404.295C335.447 401.997 337.768 399.704 340.088 397.412C345.821 391.74 351.507 386.109 356.738 379.964C360.388 375.806 364.431 372.011 368.379 368.139C372.33 364.234 376.062 360.223 379.687 356.014C382.115 353.26 384.712 350.701 387.34 348.139C391.263 344.27 394.994 340.331 398.566 336.132C401.537 332.795 404.76 329.712 407.937 326.573C409.977 324.507 411.895 322.409 413.777 320.202C417.083 316.333 420.671 312.779 424.29 309.208C427.539 305.986 430.564 302.646 433.531 299.167C436.512 295.825 439.741 292.731 442.926 289.585C445.627 286.848 448.13 283.99 450.629 281.069C452.458 279.006 454.375 277.073 456.34 275.139C458.878 272.64 461.281 270.102 463.59 267.389C466.675 263.794 469.972 260.466 473.34 257.139C477.256 253.266 481.037 249.353 484.609 245.155C487.504 241.783 490.523 238.522 493.519 235.241C495.376 233.272 495.376 233.272 496.34 231.139C495.35 230.871 494.36 230.603 493.34 230.327C490.085 229.395 486.935 228.271 483.773 227.057C479.506 225.448 475.2 223.945 470.902 222.421C467.755 221.289 464.623 220.12 461.492 218.943C437.286 209.901 412.857 201.505 388.308 193.447C385.576 192.549 382.847 191.641 380.121 190.726C379.438 190.497 378.756 190.268 378.053 190.032C376.179 189.402 374.305 188.771 372.431 188.14C359.658 184.007 348.785 187.851 336.547 192.171C335.684 192.474 334.821 192.777 333.932 193.09C322.353 197.175 310.815 201.375 299.277 205.577C298.093 206.008 296.91 206.439 295.69 206.883C287.238 209.961 278.788 213.048 270.34 216.139C269.218 216.55 268.097 216.96 266.941 217.383C260.741 219.654 254.543 221.932 248.349 224.222C246.475 224.914 244.601 225.604 242.726 226.293C240.151 227.239 237.579 228.192 235.008 229.147C234.252 229.423 233.496 229.699 232.718 229.984C228.68 231.485 228.68 231.485 225.34 234.139C225.094 237.076 224.966 239.925 224.926 242.866C224.906 243.729 224.887 244.592 224.867 245.481C224.807 248.242 224.761 251.003 224.715 253.764C224.676 255.634 224.637 257.504 224.597 259.374C224.501 263.962 224.417 268.551 224.34 273.139C225.287 273.137 226.235 273.135 227.211 273.133C239.567 273.105 251.922 273.087 264.277 273.077C265.277 273.076 266.276 273.075 267.306 273.074C298.362 273.051 329.411 273.223 360.465 273.639C361.356 273.651 362.248 273.663 363.166 273.676C373.891 273.82 384.615 273.974 395.34 274.139C395.34 274.799 395.34 275.459 395.34 276.139C393.843 277.617 393.843 277.617 391.791 279.321C387.713 282.791 383.9 286.438 380.123 290.229C379.443 290.908 378.763 291.586 378.063 292.284C375.808 294.536 373.556 296.791 371.304 299.045C369.679 300.669 368.054 302.293 366.428 303.916C362.03 308.31 357.634 312.708 353.239 317.106C348.631 321.716 344.021 326.324 339.411 330.932C331.176 339.165 322.944 347.4 314.713 355.637C307.261 363.093 299.807 370.546 292.351 377.998C283.676 386.667 275.003 395.338 266.332 404.012C261.749 408.597 257.164 413.182 252.578 417.765C248.265 422.074 243.956 426.386 239.648 430.7C238.07 432.279 236.491 433.858 234.911 435.436C232.748 437.596 230.588 439.759 228.43 441.922C227.81 442.54 227.189 443.158 226.551 443.795C222.855 447.507 219.352 451.339 215.938 455.312C213.352 458.269 210.594 461.047 207.82 463.827C207.235 464.415 206.651 465.003 206.048 465.609C204.829 466.833 203.608 468.057 202.386 469.279C200.509 471.158 198.64 473.045 196.771 474.932C195.58 476.127 194.388 477.321 193.195 478.514C192.358 479.363 192.358 479.363 191.503 480.228C187.569 484.139 187.569 484.139 185.34 484.139C171.526 457.504 161.32 429.759 155.402 400.327C155.265 399.654 155.127 398.981 154.985 398.288C153.971 393.258 153.133 388.209 152.34 383.139C152.209 382.314 152.079 381.489 151.945 380.638C148.808 359.9 148.941 339.274 149.035 318.358C149.054 313.41 149.056 308.463 149.06 303.516C149.069 294.192 149.093 284.868 149.124 275.543C149.157 264.909 149.174 254.275 149.189 243.641C149.22 221.807 149.272 199.973 149.34 178.139C150.935 177.336 152.53 176.533 154.126 175.732C155.015 175.285 155.903 174.838 156.819 174.378C159.772 172.927 162.764 171.656 165.824 170.448C166.99 169.985 168.156 169.521 169.358 169.044C170.602 168.555 171.846 168.066 173.09 167.577C174.416 167.052 175.742 166.526 177.068 166C179.809 164.913 182.551 163.828 185.294 162.743C190.314 160.756 195.322 158.739 200.331 156.724C249.32 137.039 249.32 137.039 269.213 130.269C274.322 128.526 279.265 126.527 284.222 124.385C288.971 122.487 293.832 120.954 298.694 119.374C304.104 117.598 309.325 115.546 314.554 113.288C318.397 111.703 322.324 110.447 326.277 109.171C329.488 108.09 332.626 106.882 335.777 105.639C358.979 96.6858 358.979 96.6858 369.34 100.139Z" fill="white"/>
</svg>
