<svg width="550" height="550" viewBox="0 0 550 550" fill="none" xmlns="http://www.w3.org/2000/svg">
<path d="M284.34 15.1394C284.34 15.7994 284.34 16.4594 284.34 17.1394C284.957 17.1651 285.575 17.1909 286.211 17.2175C287.058 17.2742 287.905 17.3309 288.777 17.3894C290.013 17.459 290.013 17.459 291.273 17.53C294.788 18.2284 297.626 19.5446 300.862 21.0476C305.141 22.9333 309.582 24.3241 314.027 25.7644C314.938 26.0634 315.849 26.3625 316.787 26.6706C320.386 27.8519 323.987 29.0249 327.59 30.1941C330.653 31.2471 333.645 32.4351 336.652 33.6394C341.196 35.4113 345.525 36.8136 350.34 37.5847C352.34 38.1394 352.34 38.1394 354.578 39.5066C358.085 41.58 361.683 42.8261 365.527 44.1394C366.284 44.4028 367.04 44.6663 367.82 44.9377C371.801 46.3122 375.79 47.6037 379.84 48.7644C383.699 49.88 387.24 51.3614 390.883 53.0456C394.794 54.7868 398.803 56.263 402.804 57.7839C408.355 59.9121 413.867 62.1344 419.382 64.3537C420.735 64.8967 422.089 65.4372 423.444 65.9758C430.845 68.9207 438.212 71.9492 445.577 74.9831C447.741 75.8747 449.907 76.7649 452.072 77.655C459.862 80.8606 467.637 84.098 475.398 87.3708C476.264 87.7357 477.13 88.1005 478.022 88.4764C480.128 89.3638 482.234 90.2515 484.34 91.1394C484.665 102.501 484.914 113.861 485.065 125.226C485.138 130.505 485.236 135.781 485.396 141.058C485.549 146.161 485.632 151.262 485.668 156.367C485.694 158.304 485.744 160.241 485.82 162.177C486.421 178.107 486.421 178.107 481.292 184.347C478.404 187.401 475.276 190.078 472.004 192.709C469.542 194.825 467.688 197.19 465.715 199.764C461.99 204.483 457.933 208.663 453.649 212.862C450.246 216.203 447.07 219.651 443.98 223.28C442.178 225.322 440.28 227.228 438.34 229.139C435.15 232.286 432.175 235.545 429.254 238.94C426.988 241.543 424.667 244.091 422.34 246.639C414.935 254.761 414.935 254.761 407.902 263.202C405.878 265.522 403.972 267.395 401.652 269.382C397.599 272.893 393.675 276.52 389.777 280.202C388.371 281.525 386.965 282.848 385.558 284.171C384.503 285.164 384.503 285.164 383.426 286.178C379.603 289.772 375.764 293.349 371.927 296.927C368.754 299.886 365.584 302.846 362.418 305.811C351.644 315.896 351.644 315.896 346.402 320.577C336.587 329.36 326.923 338.345 317.746 347.796C315.744 349.746 313.706 351.568 311.59 353.389C307.122 357.265 302.982 361.422 298.84 365.639C294.873 369.678 290.934 373.687 286.621 377.358C280.529 382.599 274.985 388.427 269.34 394.139C256.422 407.21 256.422 407.21 250.173 412.529C246.681 415.596 243.468 418.949 240.215 422.264C235.757 426.807 231.311 431.159 226.34 435.139C227.506 438.64 228.115 438.899 231.179 440.706C231.987 441.187 232.794 441.668 233.626 442.163C234.938 442.925 234.938 442.925 236.277 443.702C237.617 444.492 237.617 444.492 238.985 445.297C245.005 448.827 251.063 452.291 257.152 455.702C257.873 456.107 258.594 456.512 259.337 456.929C268.757 462.312 268.757 462.312 279.34 463.139C283.237 461.874 286.963 460.281 290.715 458.639C291.782 458.181 292.849 457.722 293.948 457.25C297.085 455.894 300.213 454.518 303.34 453.139C304.144 452.793 304.947 452.447 305.776 452.09C322.639 444.817 338.516 435.249 352.34 423.139C354.15 421.699 355.962 420.262 357.777 418.827C368.775 409.784 377.865 399.543 386.34 388.139C386.964 387.311 387.587 386.482 388.23 385.628C397.416 372.986 404.313 359.907 409.34 345.139C409.827 343.855 410.318 342.573 410.812 341.292C412.551 336.681 413.972 331.996 415.34 327.264C415.608 326.351 415.877 325.438 416.153 324.497C417.629 319.295 418.667 314.271 419.268 308.901C420.412 298.921 423.9 293.633 430.922 286.602C433.103 284.352 435.018 281.905 436.965 279.452C440.54 275.056 444.281 270.849 448.097 266.663C450.385 264.089 452.555 261.446 454.715 258.764C457.959 254.751 461.327 250.915 464.84 247.139C470.548 241 476.139 234.694 480.965 227.827C481.418 227.27 481.872 226.713 482.34 226.139C483 226.139 483.66 226.139 484.34 226.139C484.806 286.882 481.081 342.237 452.34 397.139C452.01 397.799 451.68 398.459 451.34 399.139C450.68 399.139 450.02 399.139 449.34 399.139C449.191 399.688 449.043 400.237 448.89 400.803C447.048 406.989 444.288 411.665 440.465 416.827C439.948 417.547 439.431 418.267 438.898 419.009C430.679 430.364 430.679 430.364 426.965 432.514C423.803 434.471 421.892 436.786 419.508 439.612C416.776 442.796 413.939 445.874 411.09 448.952C410.57 449.515 410.05 450.078 409.515 450.658C408.129 452.157 406.735 453.649 405.34 455.139C404.767 455.762 404.195 456.385 403.605 457.026C402.34 458.139 402.34 458.139 400.34 458.139C400.095 458.718 399.85 459.297 399.597 459.893C396.988 464.553 392.372 467.723 388.34 471.139C387.748 471.642 387.156 472.145 386.546 472.663C377.228 480.526 367.619 487.591 357.34 494.139C356.305 494.81 355.269 495.48 354.203 496.171C337.471 506.945 319.739 516.274 301.666 524.573C300.75 524.999 299.834 525.424 298.89 525.862C298.083 526.231 297.275 526.6 296.442 526.979C294.297 528.034 294.297 528.034 292.774 529.719C290.472 531.998 287.405 532.263 284.34 533.139C282.714 534.598 282.714 534.598 281.34 536.139C277.219 538.367 274.845 538.223 270.34 537.139C266.664 535.709 263.1 534.059 259.527 532.389C258.475 531.901 257.422 531.412 256.338 530.908C223.536 515.517 192.337 497.246 164.34 474.139C163.486 473.44 163.486 473.44 162.615 472.726C150.779 462.966 140.071 452.084 129.34 441.139C130.822 437.699 132.76 435.474 135.405 432.84C136.256 431.988 137.107 431.136 137.984 430.258C138.919 429.331 139.855 428.404 140.819 427.449C141.813 426.457 142.807 425.464 143.8 424.471C145.94 422.335 148.082 420.202 150.227 418.071C153.624 414.696 157.014 411.314 160.403 407.932C165.771 402.575 171.143 397.224 176.517 391.875C186.124 382.312 195.725 372.744 205.321 363.171C208.685 359.815 212.052 356.462 215.421 353.112C217.526 351.017 219.629 348.921 221.732 346.824C223.159 345.402 224.588 343.983 226.018 342.563C230.469 338.12 234.785 333.629 238.865 328.84C241.263 326.075 243.857 323.517 246.465 320.952C247.291 320.132 247.291 320.132 248.133 319.295C250.447 316.997 252.768 314.704 255.088 312.412C260.821 306.74 266.507 301.109 271.738 294.964C275.388 290.806 279.431 287.011 283.379 283.139C287.33 279.234 291.062 275.223 294.687 271.014C297.115 268.26 299.712 265.701 302.34 263.139C306.263 259.27 309.994 255.331 313.566 251.132C316.537 247.795 319.76 244.712 322.937 241.573C324.977 239.507 326.895 237.409 328.777 235.202C332.083 231.333 335.671 227.779 339.29 224.208C342.539 220.986 345.564 217.646 348.531 214.167C351.512 210.825 354.741 207.731 357.926 204.585C360.627 201.848 363.13 198.99 365.629 196.069C367.458 194.006 369.375 192.073 371.34 190.139C373.878 187.64 376.281 185.102 378.59 182.389C381.675 178.794 384.972 175.466 388.34 172.139C392.256 168.266 396.037 164.353 399.609 160.155C402.504 156.783 405.523 153.522 408.519 150.241C410.376 148.272 410.376 148.272 411.34 146.139C410.35 145.871 409.36 145.603 408.34 145.327C405.085 144.395 401.935 143.271 398.773 142.057C394.506 140.448 390.2 138.945 385.902 137.421C382.755 136.289 379.623 135.12 376.492 133.943C352.286 124.901 327.857 116.505 303.308 108.447C300.576 107.549 297.847 106.641 295.121 105.726C294.438 105.497 293.756 105.268 293.053 105.032C291.179 104.402 289.305 103.771 287.431 103.14C274.658 99.0072 263.785 102.851 251.547 107.171C250.684 107.474 249.821 107.777 248.932 108.09C237.353 112.175 225.815 116.375 214.277 120.577C213.093 121.008 211.91 121.439 210.69 121.883C202.238 124.961 193.788 128.048 185.34 131.139C184.218 131.55 183.097 131.96 181.941 132.383C175.741 134.654 169.543 136.932 163.349 139.222C161.475 139.914 159.601 140.604 157.726 141.293C155.151 142.239 152.579 143.192 150.008 144.147C149.252 144.423 148.496 144.699 147.718 144.984C143.68 146.485 143.68 146.485 140.34 149.139C140.094 152.076 139.966 154.925 139.926 157.866C139.906 158.729 139.887 159.592 139.867 160.481C139.807 163.242 139.761 166.003 139.715 168.764C139.676 170.634 139.637 172.504 139.597 174.374C139.501 178.962 139.417 183.551 139.34 188.139C140.287 188.137 141.235 188.135 142.211 188.133C154.567 188.105 166.922 188.087 179.277 188.077C180.277 188.076 181.276 188.075 182.306 188.074C213.362 188.051 244.411 188.223 275.465 188.639C276.356 188.651 277.248 188.663 278.166 188.676C288.891 188.82 299.615 188.974 310.34 189.139C310.34 189.799 310.34 190.459 310.34 191.139C308.843 192.617 308.843 192.617 306.791 194.321C302.713 197.791 298.9 201.438 295.123 205.229C294.443 205.908 293.763 206.586 293.063 207.284C290.808 209.536 288.556 211.791 286.304 214.045C284.679 215.669 283.054 217.293 281.428 218.916C277.03 223.31 272.634 227.708 268.239 232.106C263.631 236.716 259.021 241.324 254.411 245.932C246.176 254.165 237.944 262.4 229.713 270.637C222.261 278.093 214.807 285.546 207.351 292.998C198.676 301.667 190.003 310.338 181.332 319.012C176.749 323.597 172.164 328.182 167.578 332.765C163.265 337.074 158.956 341.386 154.648 345.7C153.07 347.279 151.491 348.858 149.911 350.436C147.748 352.596 145.588 354.759 143.43 356.922C142.81 357.54 142.189 358.158 141.551 358.795C137.855 362.507 134.352 366.339 130.938 370.312C128.352 373.269 125.594 376.047 122.82 378.827C122.235 379.415 121.651 380.003 121.048 380.609C119.829 381.833 118.608 383.057 117.386 384.279C115.509 386.158 113.64 388.045 111.771 389.932C110.58 391.127 109.388 392.321 108.195 393.514C107.358 394.363 107.358 394.363 106.503 395.228C102.569 399.139 102.569 399.139 100.34 399.139C86.5258 372.504 76.32 344.759 70.4021 315.327C70.2645 314.654 70.1269 313.981 69.9851 313.288C68.9711 308.258 68.1329 303.209 67.3396 298.139C67.2093 297.314 67.0789 296.489 66.9446 295.638C63.8078 274.9 63.9411 254.274 64.0355 233.358C64.0545 228.41 64.056 223.463 64.0595 218.516C64.0688 209.192 64.0933 199.868 64.1236 190.543C64.1574 179.909 64.1737 169.275 64.1887 158.641C64.2198 136.807 64.2724 114.973 64.3396 93.1394C65.9346 92.3357 67.5303 91.5334 69.1263 90.7318C70.0148 90.2849 70.9034 89.838 71.8188 89.3775C74.772 87.927 77.764 86.6561 80.824 85.448C81.9901 84.9847 83.1562 84.5214 84.3577 84.0442C85.6017 83.555 86.8456 83.0659 88.0896 82.5769C89.4158 82.0518 90.7418 81.5262 92.0677 81.0002C94.809 79.9129 97.5512 78.8276 100.294 77.7434C105.314 75.7561 110.322 73.7393 115.331 71.7243C164.32 52.0392 164.32 52.0392 184.213 45.2692C189.322 43.5263 194.265 41.527 199.222 39.3855C203.971 37.4872 208.832 35.9544 213.694 34.374C219.104 32.5982 224.325 30.5463 229.554 28.2878C233.397 26.7033 237.324 25.4473 241.277 24.1706C244.488 23.0896 247.626 21.8817 250.777 20.6394C273.979 11.6858 273.979 11.6858 284.34 15.1394Z" fill="#161616"/>
</svg>
