<svg width="64" height="64" viewBox="0 0 64 64" fill="none" xmlns="http://www.w3.org/2000/svg">
<g clip-path="url(#clip0_1091_9075)">
<path d="M44.8491 50.6097C45.3791 50.7397 45.7191 51.2797 45.5891 51.8097L44.8891 54.7197C44.7591 55.2497 44.2191 55.5797 43.6791 55.4497L39.7891 54.5197L40.9591 49.6797L44.8491 50.6097Z" fill="#8645BF"/>
<path d="M35.1291 48.2806L33.9591 53.1306L30.0691 52.1906C29.5291 52.0706 29.1991 51.5206 29.3291 50.9906L30.0291 48.0806C30.1591 47.5506 30.6991 47.2206 31.2391 47.3506L35.1291 48.2806Z" fill="#8645BF"/>
<path d="M24.8398 34.1509L22.3298 35.0009L21.2598 31.8609L23.7698 31.0009C24.1198 30.8809 24.4998 31.0709 24.6098 31.4209L25.2498 33.3109C25.3698 33.6509 25.1798 34.0309 24.8398 34.1509Z" fill="#8645BF"/>
<path d="M17.4895 33.1406L18.5595 36.2906L16.0395 37.1406C15.6995 37.2606 15.3195 37.0706 15.1995 36.7206L14.5595 34.8306C14.4495 34.4906 14.6295 34.1106 14.9795 33.9906L17.4895 33.1406Z" fill="#8645BF"/>
<path d="M23.3992 40.2604L21.6992 35.2204L22.3292 35.0004L24.8392 34.1504L26.3292 38.5604C26.4492 38.9104 26.2592 39.2804 25.9092 39.4004L23.3992 40.2604Z" fill="#8645BF"/>
<path d="M38.8192 54.2891L39.7892 54.5191L43.6792 55.4491L42.0492 62.2391C41.9192 62.7691 41.3692 63.0991 40.8392 62.9691L36.9492 62.0391L37.0492 61.6191L38.7192 54.7091L38.8192 54.2891Z" fill="#8645BF"/>
<path d="M34.8301 53.7695L33.1601 60.6895L33.0601 61.1095L29.1701 60.1795C28.6401 60.0495 28.3001 59.5095 28.4301 58.9795L30.0701 52.1895L33.9601 53.1295L34.9301 53.3595L34.8301 53.7695Z" fill="#8645BF"/>
<path d="M21.6995 35.2207L23.3995 40.2607L20.8895 41.1107L19.1895 36.0707L21.6995 35.2207Z" fill="#FFCA3A"/>
<path d="M20.8891 41.1103L18.3791 41.9603C18.0291 42.0803 17.6491 41.9003 17.5391 41.5503L16.0391 37.1403L18.5591 36.2903L19.1891 36.0703L20.8891 41.1103Z" fill="#8645BF"/>
<path d="M38.8205 54.2894L38.7205 54.7094L37.0505 61.6194L36.9505 62.0394L33.0605 61.1094L33.1605 60.6894L34.8305 53.7694L34.9305 53.3594L38.8205 54.2894Z" fill="#FFCA3A"/>
<path d="M40.9609 49.6793L39.7909 54.5193L38.8209 54.2893L34.9309 53.3593L33.9609 53.1293L35.1309 48.2793L36.1009 48.5093L38.0409 48.9793L39.9909 49.4493L40.9609 49.6793Z" fill="#FFCA3A"/>
<path d="M43.6792 55.4491L43.3292 56.8891L39.6892 56.0791L38.6492 55.8491L38.4492 55.8091L38.7192 54.7091L38.8192 54.2891L39.7892 54.5191L43.6792 55.4491Z" fill="#61308F"/>
<path d="M38.8208 54.2894L38.7208 54.7094L38.4508 55.8094L34.5508 54.9394L34.8308 53.7694L34.9308 53.3594L38.8208 54.2894Z" fill="#FF9700"/>
<path d="M34.9299 53.3595L34.8299 53.7695L34.5499 54.9395L34.4599 54.9195L33.4199 54.6895L29.6699 53.8495L30.0699 52.1895L33.9599 53.1295L34.9299 53.3595Z" fill="#61308F"/>
<path d="M57.5091 5.77C61.2091 9.18 63.0591 13.95 62.9991 18.79C62.9491 22.28 61.7391 25.66 59.7991 28.57L58.6591 30.27C57.8591 31.47 56.5391 32.23 55.0991 32.28C53.1491 32.34 50.3491 31.86 47.7891 29.31L52.3691 17.94C53.2991 15.63 53.8791 13.18 53.9091 10.7C53.9691 5.93 52.3091 2.18 49.4891 1.5C52.5991 2.24 55.3191 3.75 57.5091 5.77Z" fill="#8645BF"/>
<path d="M62.9993 18.7896C62.9493 22.2796 61.7393 25.6596 59.7993 28.5696L58.6593 30.2696C57.8593 31.4696 56.5393 32.2296 55.0993 32.2796C54.0893 32.3096 52.8493 32.1996 51.5293 31.7196C52.1293 31.4896 52.6893 31.1196 53.1593 30.6396L54.5893 29.1796C57.0293 26.6696 58.8393 23.5696 59.5193 20.1496C60.4693 15.3996 59.5193 10.3696 56.5093 6.33961C55.4493 4.92961 54.1893 3.66961 52.7193 2.59961C54.5093 3.39961 56.1193 4.47961 57.5093 5.76961C61.2093 9.17961 63.0593 13.9496 62.9993 18.7896Z" fill="#61308F"/>
<path d="M49.4901 1.49959C52.3101 2.17959 53.9701 5.92959 53.9101 10.6996C53.8801 13.1796 53.3001 15.6296 52.3701 17.9396L47.7901 29.3096C47.7901 29.3096 45.4101 30.6996 42.6101 30.0496C41.2201 29.6996 40.1401 28.9496 39.4201 28.2896C38.7001 27.6196 38.3301 27.0396 38.3301 27.0396L39.4401 14.8396C39.6601 12.3696 40.2601 9.91959 41.3701 7.68959C43.4901 3.41959 46.6701 0.829588 49.4901 1.49959Z" fill="#0DCEBB"/>
<path d="M49.4908 1.50065C46.6708 0.830649 43.4908 3.42065 41.3708 7.69065C40.2608 9.92065 39.6608 12.3706 39.4408 14.8406L38.3308 27.0406C34.8808 28.1606 32.1708 27.3206 30.4608 26.3806C29.2008 25.6806 28.3808 24.4106 28.2108 22.9806L27.9708 20.9506C27.5708 17.4806 28.0308 13.9206 29.5808 10.7806C31.7308 6.45065 35.5608 3.04065 40.4008 1.67065C43.2708 0.860649 46.3908 0.760649 49.4908 1.50065Z" fill="#8645BF"/>
<path d="M22.6495 6.59906C23.8695 8.58906 24.3895 10.9291 24.3295 13.2591L24.2995 14.6191C24.2695 15.5791 23.8095 16.4791 23.0095 17.0191C21.9395 17.7491 20.1995 18.4691 17.8595 17.9291L16.3895 9.88906C16.0895 8.25906 15.5495 6.66906 14.6795 5.25906C13.0195 2.54906 10.7595 1.01906 8.93945 1.63906C10.9495 0.949058 13.0095 0.839058 14.9495 1.19906C18.2395 1.81906 20.9695 3.84906 22.6495 6.59906Z" fill="#0DCEBB"/>
<path d="M21.2602 31.8594L22.3302 34.9994L21.7002 35.2194L19.1902 36.0694L18.5602 36.2894L17.4902 33.1394L18.1202 32.9194L19.3802 32.4994L20.6302 32.0694L21.2602 31.8594Z" fill="#FFCA3A"/>
<path d="M25.2092 35.2504C25.1392 35.4004 25.0092 35.5304 24.8392 35.5904L22.3292 36.4404L22.1292 36.5104L21.6992 35.2204L22.3292 35.0004L24.8392 34.1504L25.2092 35.2504Z" fill="#61308F"/>
<path d="M22.1295 36.5107L21.6995 36.6607L19.6295 37.3607L19.1895 36.0707L21.6995 35.2207L22.1295 36.5107Z" fill="#FF9700"/>
<path d="M19.6291 37.3603L19.1891 37.5103L18.5591 37.7303L16.4791 38.4303L16.0391 37.1403L18.5591 36.2903L19.1891 36.0703L19.6291 37.3603Z" fill="#61308F"/>
<path d="M16.3904 9.88911L17.8604 17.9291C17.8604 17.9291 17.0204 19.5591 15.2204 20.1891C14.7104 20.3591 14.2204 20.4191 13.7704 20.4191C12.6804 20.4191 11.8604 20.0591 11.7604 20.0191C11.7504 20.0091 11.7504 20.0091 11.7504 20.0091L8.03045 12.7391C7.28045 11.2591 6.75045 9.66911 6.58045 8.01911C6.25045 4.84911 7.12045 2.25911 8.94045 1.63911C10.7604 1.01911 13.0204 2.54911 14.6804 5.25911C15.5504 6.66911 16.0904 8.25911 16.3904 9.88911Z" fill="#8645BF"/>
<path d="M8.02966 12.7406L11.7497 20.0106C10.2097 21.8706 8.38966 22.3606 7.09966 22.4306C6.13966 22.4806 5.22966 22.0606 4.62966 21.3106L3.76966 20.2506C2.31966 18.4306 1.30966 16.2606 1.06966 13.9406C0.729664 10.7306 1.66966 7.45063 3.89966 4.96063C5.22966 3.48063 6.92966 2.32063 8.93966 1.64062C7.11966 2.26063 6.24966 4.85063 6.57966 8.02063C6.74966 9.67063 7.27966 11.2606 8.02966 12.7406Z" fill="#0DCEBB"/>
<path d="M24.2998 14.6191C24.2698 15.5791 23.8098 16.4791 23.0098 17.0191C21.9398 17.7491 20.1998 18.4691 17.8598 17.9291L17.5898 16.4291C17.8398 16.1291 17.9598 15.9191 17.9598 15.9191C20.6098 16.4591 22.5698 15.7391 23.7798 15.0091C23.9698 14.8991 24.1398 14.7591 24.2998 14.6191Z" fill="#02AF9E"/>
<path d="M17.8598 17.9297C17.8598 17.9297 17.0198 19.5597 15.2198 20.1897C14.7098 20.3597 14.2198 20.4197 13.7698 20.4197C12.6798 20.4197 11.8598 20.0597 11.7598 20.0197C11.7498 20.0097 11.7498 20.0097 11.7498 20.0097L10.8398 18.2197C10.9098 18.1497 10.9898 18.0797 11.0598 17.9997C11.0598 17.9997 11.0598 17.9997 11.0698 18.0097C11.1898 18.0497 12.1098 18.4097 13.3398 18.4097C13.8498 18.4097 14.4098 18.3497 14.9798 18.1797C16.2798 17.7797 17.1398 16.9597 17.5898 16.4297L17.8598 17.9297Z" fill="#61308F"/>
<path d="M11.7509 20.0107C10.2109 21.8707 8.39094 22.3607 7.10094 22.4307C6.14094 22.4807 5.23094 22.0607 4.63094 21.3107L3.77094 20.2507C3.57094 20.0007 3.39094 19.7507 3.21094 19.4907C3.89094 20.1207 4.83094 20.4707 5.81094 20.4207C7.21094 20.3507 9.15094 19.9007 10.8409 18.2207L11.7509 20.0107Z" fill="#02AF9E"/>
<path d="M58.1907 5.03588C55.8187 2.84688 52.8947 1.28788 49.7337 0.529882C49.7317 0.529882 49.7287 0.528882 49.7267 0.527882C46.5647 -0.228118 43.2467 -0.165118 40.1327 0.710882C35.1997 2.10088 31.0287 5.60988 28.6867 10.3379C27.1227 13.4959 26.5337 17.2049 26.9817 21.0629L27.2177 23.0949C27.3897 24.5829 28.1587 25.9179 29.3117 26.8049C28.7147 29.1669 27.1737 37.0569 29.9787 46.6069C29.5327 46.8729 29.1897 47.3079 29.0597 47.8499L28.3587 50.7569C28.2337 51.2739 28.3187 51.8099 28.5977 52.2649C28.6897 52.4149 28.8037 52.5429 28.9277 52.6619L27.4617 58.7399C27.3367 59.2569 27.4217 59.7929 27.7007 60.2489C27.9797 60.7059 28.4207 61.0249 28.9397 61.1499L40.6077 63.9449C40.7627 63.9819 40.9187 63.9999 41.0727 63.9999C41.9757 63.9999 42.7977 63.3839 43.0177 62.4699L44.4837 56.3919C45.1437 56.1949 45.6877 55.6669 45.8597 54.9509L46.5607 52.0439C46.6857 51.5249 46.5997 50.9889 46.3197 50.5329C46.3167 50.5279 46.3127 50.5239 46.3097 50.5189C53.1657 43.2809 55.3897 35.5529 55.9337 33.1819C57.3647 32.9139 58.6587 32.0729 59.4907 30.8259L60.6267 29.1219C62.7857 25.8889 63.9517 22.3179 63.9987 18.7959C64.0687 13.5259 61.9517 8.50988 58.1907 5.03588ZM28.9677 20.8329C28.5647 17.3589 29.0867 14.0369 30.4787 11.2259C32.5697 7.00388 36.2857 3.87288 40.6747 2.63588C41.9177 2.28588 43.1977 2.08888 44.4857 2.02988C42.9927 3.20788 41.5977 4.98088 40.4717 7.24788C39.7827 8.63488 39.2517 10.1609 38.8937 11.7849C38.7747 12.3249 39.1157 12.8579 39.6547 12.9769C39.7277 12.9929 39.7997 12.9999 39.8707 12.9999C40.3297 12.9999 40.7437 12.6819 40.8467 12.2149C41.1697 10.7499 41.6457 9.37788 42.2627 8.13688C44.2127 4.21388 47.0307 1.93888 49.2617 2.47288C51.4967 3.00788 52.9637 6.30788 52.9107 10.6839C52.8847 12.9009 52.3907 15.2159 51.4437 17.5649L47.0047 28.5799C46.3697 28.8729 44.7017 29.5079 42.8507 29.0799C40.9917 28.6169 39.7937 27.2969 39.3627 26.7509L40.3267 16.0899C40.3767 15.5399 39.9707 15.0539 39.4207 15.0039C38.8757 14.9609 38.3847 15.3599 38.3347 15.9099L37.3977 26.2699C34.5667 26.9989 32.3467 26.2729 30.9467 25.5009C29.9857 24.9709 29.3337 23.9849 29.2037 22.8639L28.9677 20.8329ZM44.5207 49.5019L41.6437 48.8129C45.8987 42.4029 47.8007 34.6159 48.4747 31.1909C50.3557 32.5739 52.2637 33.1089 53.8517 33.2429C53.1467 35.9399 50.7967 43.0399 44.5207 49.5019ZM34.2667 60.3729L35.6687 54.5629L37.6127 55.0289L36.2117 60.8379L34.2667 60.3729ZM30.3027 51.2209L31.0037 48.3209L33.9187 49.0179L33.2187 51.9189L30.3027 51.2209ZM31.1377 27.8009C32.2157 28.2389 33.5377 28.5749 35.0737 28.5749C35.6407 28.5749 36.2367 28.5259 36.8587 28.4239C35.8957 31.7909 34.0457 39.5769 34.9127 47.1999L32.0337 46.5099C29.3897 37.9109 30.5357 30.5209 31.1377 27.8009ZM36.9897 47.6979C35.9707 40.3239 37.8227 32.4089 38.7697 29.0399C39.5897 29.7919 40.7987 30.6309 42.3837 31.0249C42.9897 31.1649 43.5767 31.2209 44.1317 31.2209C45.0237 31.2209 45.8267 31.0739 46.4867 30.8899C45.7937 34.3229 43.8327 42.2099 39.5627 48.3149L36.9897 47.6979ZM35.1647 52.3849L35.8647 49.4829L39.6787 50.3949C39.6817 50.3959 39.6847 50.3959 39.6877 50.3969L39.7537 50.4129L39.0537 53.3159L35.1647 52.3849ZM30.8067 53.3979L33.7227 54.0959L32.3217 59.9069L29.4047 59.2099L30.8067 53.3979ZM41.0717 61.9999L38.1567 61.3029L39.5577 55.4949C39.5587 55.4949 39.5597 55.4949 39.5597 55.4949L42.4737 56.1929L41.0717 61.9999ZM40.9987 53.7829L41.6987 50.8789L44.6157 51.5769L43.9137 54.4819C43.9137 54.4819 43.9137 54.4819 43.9127 54.4819L40.9987 53.7829ZM58.9627 28.0139L57.8267 29.7179C57.1987 30.6589 56.1667 31.2429 55.0677 31.2799C53.4677 31.3419 51.1627 30.9739 48.9737 29.0459L53.2987 18.3149C54.3387 15.7339 54.8807 13.1759 54.9097 10.7109C54.9397 8.18088 54.5117 5.96088 53.7197 4.23388C54.8407 4.86988 55.8867 5.63188 56.8337 6.50688C60.1787 9.59588 62.0617 14.0669 61.9987 18.7729C61.9567 21.9059 60.9067 25.1019 58.9627 28.0139Z" fill="#472B3C"/>
<path d="M2.99584 20.875L3.84984 21.938C4.48184 22.725 5.38084 23.216 6.34684 23.367C6.93984 25.107 8.90184 29.873 13.6158 34.117C13.5108 34.445 13.5008 34.805 13.6188 35.155L14.2578 37.045C14.4008 37.466 14.6988 37.806 15.0988 38.003C15.1668 38.036 15.2378 38.055 15.3078 38.078L16.5898 41.869C16.7328 42.29 17.0308 42.63 17.4308 42.827C17.6628 42.942 17.9138 43 18.1648 43C18.3448 43 18.5248 42.97 18.6998 42.911L26.2388 40.348C27.1058 40.053 27.5718 39.106 27.2788 38.238L25.9978 34.451C26.2798 34.034 26.3758 33.498 26.2028 32.986L25.5638 31.097C25.4488 30.756 25.2268 30.472 24.9358 30.27C26.0988 24.048 24.7778 19.078 24.1898 17.32C24.8688 16.612 25.2748 15.66 25.2988 14.647L25.3318 13.282C25.3958 10.628 24.7658 8.13701 23.5088 6.07901C21.6268 2.99701 18.5768 0.862008 15.1408 0.219008C12.9768 -0.184992 10.7238 -0.0229922 8.62584 0.688008C8.62384 0.688008 8.62284 0.689008 8.62084 0.690008C8.61684 0.691008 8.61384 0.692008 8.61184 0.693008C6.51584 1.40701 4.62984 2.65201 3.15884 4.29201C0.82284 6.89701 -0.302159 10.452 0.0728405 14.044C0.322841 16.444 1.33384 18.806 2.99584 20.875ZM8.43284 23.241C9.31084 23.035 10.2868 22.631 11.2368 21.892C11.9648 24.259 13.5968 28.73 16.4368 32.44L15.2088 32.858C11.1158 29.269 9.16584 25.147 8.43284 23.241ZM19.1838 35.017L18.7598 33.763L20.6348 33.126L21.0588 34.38L19.1838 35.017ZM16.0428 36.085L15.6188 34.83L16.8658 34.406L17.2898 35.66L16.0428 36.085ZM22.9528 33.736L22.5288 32.482L23.7758 32.058L24.1998 33.312L22.9528 33.736ZM22.4488 18.476C23.0238 20.439 23.9748 24.899 22.9028 30.242L21.6768 30.659C21.6788 25.983 20.2638 21.441 19.4058 19.118C19.4228 19.118 19.4418 19.121 19.4578 19.121C20.6398 19.12 21.6388 18.842 22.4488 18.476ZM17.5558 19.897C18.4048 22.228 19.8128 26.842 19.6598 31.344L18.4528 31.754C15.5998 28.273 13.9188 23.749 13.1788 21.383C13.3708 21.402 13.5698 21.415 13.7808 21.415C14.3258 21.415 14.9268 21.341 15.5458 21.137C16.3908 20.842 17.0528 20.369 17.5558 19.897ZM18.3758 40.909L17.3128 37.765L18.8778 37.233H18.8798L21.0728 36.487L22.1358 39.631L21.5168 39.841L21.1238 38.679C20.9468 38.156 20.3788 37.872 19.8558 38.052C19.3328 38.229 19.0518 38.796 19.2288 39.32L19.6228 40.485L18.3758 40.909ZM24.0288 38.987L22.9658 35.843L24.2128 35.419L25.2758 38.563L24.0288 38.987ZM14.7708 2.18601C17.6508 2.72501 20.2128 4.52401 21.7998 7.12301C22.8558 8.85301 23.3858 10.967 23.3308 13.236L23.2978 14.601C23.2818 15.247 22.9658 15.842 22.4518 16.192C21.6638 16.729 20.4048 17.284 18.7178 17.072L17.3758 9.71501C17.0358 7.85001 16.4168 6.17601 15.5358 4.73801C14.8538 3.62401 14.0818 2.70601 13.2728 2.01201C13.7748 2.03501 14.2758 2.09301 14.7708 2.18601ZM9.26284 2.58401C9.26484 2.58401 9.26584 2.58301 9.26784 2.58201C10.5448 2.15901 12.4138 3.47201 13.8308 5.78301C14.5808 7.00901 15.1118 8.45301 15.4078 10.074L16.8048 17.732C16.5258 18.134 15.8928 18.897 14.9028 19.244C13.8938 19.578 12.9258 19.359 12.4628 19.211L8.92684 12.282C8.17784 10.815 7.72384 9.34501 7.57584 7.91401C7.29584 5.20801 7.98984 3.01701 9.26284 2.58401ZM4.64784 5.62701C4.98284 5.25301 5.34384 4.90301 5.72784 4.58001C5.50684 5.62301 5.45284 6.82001 5.58584 8.11801C5.75884 9.79601 6.28384 11.503 7.14484 13.19L10.5428 19.849C9.33084 21.047 7.99484 21.376 7.04284 21.431C6.41784 21.475 5.81284 21.187 5.40884 20.685L4.55484 19.622C3.13484 17.854 2.27284 15.853 2.06184 13.836C1.74484 10.805 2.68784 7.81301 4.64784 5.62701Z" fill="#472B3C"/>
</g>
<defs>
<clipPath id="clip0_1091_9075">
<rect width="64" height="64" fill="white"/>
</clipPath>
</defs>
</svg>
