<svg width="136" height="136" viewBox="0 0 136 136" fill="none" xmlns="http://www.w3.org/2000/svg">
<path d="M89.1226 78.37C94.9451 79.3475 101.363 78.3275 105.868 75.31C111.86 71.315 111.86 64.77 105.868 60.775C101.32 57.7575 94.8176 56.7375 88.9951 57.7575M46.7501 78.37C40.9276 79.3475 34.5101 78.3275 30.0051 75.31C24.0126 71.315 24.0126 64.77 30.0051 60.775C34.5526 57.7575 41.0551 56.7375 46.8776 57.7575M93.5001 47.43C93.2326 47.3875 92.9601 47.3875 92.6926 47.43C89.8563 47.3274 87.171 46.1261 85.2041 44.08C83.2373 42.0338 82.143 39.3032 82.1526 36.465C82.1526 30.3875 87.0401 25.5 93.1176 25.5C96.0257 25.5 98.8147 26.6552 100.871 28.7116C102.927 30.7679 104.083 33.5569 104.083 36.465C104.075 39.3052 102.969 42.0323 100.997 44.076C99.0244 46.1196 96.3382 47.3214 93.5001 47.43ZM42.3726 47.43C42.6276 47.3875 42.9251 47.3875 43.1801 47.43C46.0164 47.3274 48.7018 46.1261 50.6686 44.08C52.6354 42.0338 53.7297 39.3032 53.7201 36.465C53.7201 30.3875 48.8326 25.5 42.7551 25.5C39.847 25.5 37.058 26.6552 35.0017 28.7116C32.9454 30.7679 31.7901 33.5569 31.7901 36.465C31.8326 42.415 36.5076 47.2175 42.3726 47.43ZM68.0001 79.1775C67.7326 79.135 67.4601 79.135 67.1926 79.1775C64.3563 79.0749 61.671 77.8736 59.7041 75.8275C57.7373 73.7813 56.643 71.0507 56.6526 68.2125C56.6526 62.135 61.5401 57.2475 67.6176 57.2475C70.5257 57.2475 73.3147 58.4027 75.371 60.4591C77.4274 62.5154 78.5826 65.3044 78.5826 68.2125C78.5401 74.1625 73.8651 79.0075 68.0001 79.1775ZM55.6326 92.565C49.6401 96.56 49.6401 103.105 55.6326 107.1C62.4326 111.648 73.5676 111.648 80.3676 107.1C86.3601 103.105 86.3601 96.56 80.3676 92.565C73.6101 88.06 62.4326 88.06 55.6326 92.565Z" stroke="black" strokeWidth="6.375" stroke-linecap="round" stroke-linejoin="round"/>
</svg>
