<svg width="1281" height="380" viewBox="0 0 1281 380" fill="none" xmlns="http://www.w3.org/2000/svg">
<path d="M188.92 175.514L144.389 180.372C143.13 175.874 140.926 171.646 137.777 167.688C134.718 163.729 130.58 160.536 125.362 158.107C120.144 155.678 113.757 154.463 106.2 154.463C96.0346 154.463 87.4882 156.667 80.5611 161.075C73.724 165.483 70.3504 171.196 70.4403 178.213C70.3504 184.241 72.5545 189.143 77.0526 192.922C81.6406 196.7 89.1974 199.804 99.723 202.233L135.078 209.79C154.69 214.018 169.264 220.72 178.8 229.896C188.426 239.072 193.284 251.082 193.374 265.926C193.284 278.971 189.46 290.486 181.903 300.472C174.437 310.367 164.046 318.104 150.732 323.682C137.417 329.259 122.124 332.048 104.851 332.048C79.4815 332.048 59.0601 326.741 43.5867 316.125C28.1132 305.42 18.892 290.531 15.9233 271.459L63.5582 266.871C65.7173 276.227 70.3054 283.289 77.3224 288.057C84.3395 292.825 93.4706 295.209 104.716 295.209C116.321 295.209 125.632 292.825 132.649 288.057C139.756 283.289 143.31 277.396 143.31 270.379C143.31 264.442 141.016 259.539 136.428 255.67C131.929 251.802 124.912 248.833 115.376 246.764L80.0213 239.342C60.1397 235.204 45.4309 228.232 35.8949 218.426C26.3589 208.53 21.6359 196.026 21.7259 180.912C21.6359 168.137 25.0994 157.072 32.1165 147.716C39.2235 138.27 49.0743 130.983 61.669 125.855C74.3537 120.637 88.9725 118.028 105.526 118.028C129.815 118.028 148.932 123.201 162.876 133.547C176.911 143.893 185.592 157.882 188.92 175.514Z" fill="black"/>
<path d="M367.5 350C291.006 350 229 287.994 229 211.5C229 135.006 291.006 73 367.5 73C443.994 73 506 135.006 506 211.5C506 287.994 443.994 350 367.5 350ZM395.2 183.8V239.2H422.9V183.8H395.2ZM312.1 183.8V239.2H339.8V183.8H312.1Z" fill="#2800AA"/>
<path d="M635.432 324.835C615.83 324.835 598.997 320.531 584.935 311.923C570.957 303.315 560.176 291.426 552.591 276.256C545.091 261 541.341 243.443 541.341 223.585C541.341 203.642 545.176 186.043 552.847 170.787C560.517 155.446 571.341 143.514 585.318 134.991C599.381 126.384 616 122.08 635.176 122.08C651.114 122.08 665.219 125.02 677.491 130.901C689.849 136.696 699.693 144.92 707.023 155.574C714.352 166.142 718.528 178.5 719.551 192.648H675.318C673.528 183.187 669.267 175.304 662.534 168.997C655.886 162.605 646.98 159.409 635.815 159.409C626.355 159.409 618.045 161.966 610.886 167.08C603.727 172.108 598.145 179.352 594.139 188.812C590.219 198.273 588.259 209.608 588.259 222.818C588.259 236.199 590.219 247.705 594.139 257.335C598.06 266.881 603.557 274.253 610.631 279.452C617.79 284.565 626.185 287.122 635.815 287.122C642.634 287.122 648.727 285.844 654.097 283.287C659.551 280.645 664.111 276.852 667.776 271.909C671.44 266.966 673.955 260.957 675.318 253.884H719.551C718.443 267.776 714.352 280.091 707.278 290.83C700.205 301.483 690.574 309.835 678.386 315.886C666.199 321.852 651.881 324.835 635.432 324.835ZM799.739 259.381L799.612 203.514H807.026L877.594 124.636H931.671L844.867 221.284H835.279L799.739 259.381ZM757.552 321V59.1818H803.83V321H757.552ZM880.79 321L816.87 231.639L848.063 199.04L936.146 321H880.79ZM1041.36 324.835C1021.67 324.835 1004.67 320.744 990.35 312.562C976.117 304.295 965.165 292.619 957.495 277.534C949.825 262.364 945.989 244.509 945.989 223.969C945.989 203.77 949.825 186.043 957.495 170.787C965.251 155.446 976.075 143.514 989.967 134.991C1003.86 126.384 1020.18 122.08 1038.93 122.08C1051.03 122.08 1062.45 124.04 1073.19 127.96C1084.01 131.795 1093.56 137.761 1101.83 145.858C1110.18 153.955 1116.74 164.267 1121.51 176.795C1126.29 189.239 1128.67 204.068 1128.67 221.284V235.474H967.722V204.281H1084.31C1084.23 195.418 1082.31 187.534 1078.56 180.631C1074.81 173.642 1069.57 168.145 1062.84 164.139C1056.19 160.134 1048.43 158.131 1039.57 158.131C1030.11 158.131 1021.8 160.432 1014.64 165.034C1007.48 169.551 1001.9 175.517 997.893 182.932C993.972 190.261 991.969 198.315 991.884 207.094V234.324C991.884 245.744 993.972 255.545 998.148 263.727C1002.32 271.824 1008.16 278.045 1015.66 282.392C1023.16 286.653 1031.94 288.784 1042 288.784C1048.73 288.784 1054.82 287.847 1060.28 285.972C1065.73 284.011 1070.46 281.156 1074.47 277.406C1078.48 273.656 1081.5 269.011 1083.55 263.472L1126.76 268.33C1124.03 279.75 1118.83 289.722 1111.16 298.244C1103.57 306.682 1093.86 313.244 1082.01 317.932C1070.17 322.534 1056.61 324.835 1041.36 324.835ZM1265.88 124.636V160.432H1153V124.636H1265.88ZM1180.87 77.5909H1227.14V261.938C1227.14 268.159 1228.08 272.932 1229.96 276.256C1231.92 279.494 1234.47 281.71 1237.63 282.903C1240.78 284.097 1244.27 284.693 1248.11 284.693C1251.01 284.693 1253.65 284.48 1256.04 284.054C1258.51 283.628 1260.38 283.244 1261.66 282.903L1269.46 319.082C1266.99 319.935 1263.45 320.872 1258.85 321.895C1254.33 322.918 1248.79 323.514 1242.23 323.685C1230.64 324.026 1220.2 322.278 1210.91 318.443C1201.62 314.523 1194.25 308.472 1188.79 300.29C1183.42 292.108 1180.78 281.881 1180.87 269.608V77.5909Z" fill="black"/>
</svg>
