<svg width="357" height="100" viewBox="0 0 357 100" fill="none" xmlns="http://www.w3.org/2000/svg">
<path d="M50 57.5C50.2868 57.4999 50.5686 57.4259 50.8184 57.285L70.4017 46.2517C70.7571 46.0513 71.0267 45.7276 71.1594 45.3418C71.2921 44.956 71.2787 44.5349 71.1217 44.1583C70.5494 42.8075 69.5462 41.6841 68.2684 40.9633L53.2584 32.51C52.2617 31.9505 51.138 31.6567 49.995 31.6567C48.8521 31.6567 47.7283 31.9505 46.7317 32.51L31.7317 40.9617C30.4519 41.6845 29.4483 42.8118 28.8784 44.1667C28.7213 44.5432 28.7079 44.9643 28.8406 45.3501C28.9733 45.7359 29.2429 46.0597 29.5984 46.26L49.1817 57.2933C49.4322 57.4313 49.714 57.5025 50 57.5ZM31.7317 44.1583L40 49.5C40.5003 49.2217 48.6092 54.5 49.1817 54.5C49.7542 54.5 62.9997 48.2217 63.5 48.5L68.2684 44.2583C68.4613 44.3693 67.007 44.1076 67.1767 44.2517L50 53.925L32.8334 44.2583C32.9991 44.1128 33.1782 43.9833 33.3684 43.8717L31.7317 44.1583Z" fill="#FF0050"/>
<path d="M27.9017 53.3484C27.6983 53.2336 27.473 53.1628 27.2405 53.1406C27.008 53.1185 26.7734 53.1454 26.552 53.2198C26.3306 53.2941 26.1273 53.4141 25.9552 53.5721C25.7832 53.7301 25.6463 53.9224 25.5533 54.1367C25.1898 54.9659 25.0014 55.8613 25 56.7667V76.5667C25.0016 77.7481 25.3171 78.9079 25.9142 79.9273C26.5113 80.9467 27.3686 81.7892 28.3983 82.3684L43.3983 90.8184C44.3969 91.3769 45.5225 91.6691 46.6667 91.6667C47.1087 91.6667 47.5326 91.4911 47.8452 91.1785C48.1577 90.866 48.3333 90.4421 48.3333 90V65.8334C48.3333 65.5379 48.2547 65.2478 48.1056 64.9927C47.9566 64.7376 47.7424 64.5268 47.485 64.3817L27.9017 53.3484ZM45 87.895L30.035 79.465C29.5206 79.1753 29.0922 78.7545 28.7933 78.2454C28.4944 77.7363 28.3357 77.1571 28.3333 76.5667H26.552L32 82.3684L39.5 86L45 87.895Z" fill="#FF0050"/>
<path d="M53.3333 91.6667C54.4776 91.6697 55.6033 91.3775 56.6017 90.8184L71.6017 82.3684C72.6314 81.7892 73.4887 80.9468 74.0858 79.9273C74.6829 78.9079 74.9984 77.7481 75 76.5667V56.7667C74.9986 55.8613 74.8102 54.9659 74.4467 54.1367C74.3537 53.9224 74.2168 53.7301 74.0448 53.5721C73.8727 53.4141 73.6694 53.2941 73.448 53.2198C73.2266 53.1454 72.992 53.1185 72.7595 53.1406C72.527 53.1628 72.3017 53.2336 72.0983 53.3484L52.515 64.3817C52.2576 64.5268 52.0434 64.7376 51.8944 64.9927C51.7453 65.2478 51.6667 65.5379 51.6667 65.8334V90C51.6667 90.4421 51.8423 90.866 52.1548 91.1785C52.4674 91.4911 52.8913 91.6667 53.3333 91.6667ZM55 83.1069H63.5L72.7595 78.2454L71.6667 76.5667C71.6643 77.1571 71.5056 77.7363 71.2067 78.2454C70.9078 78.7545 70.4794 79.1753 69.965 79.465L62.5 81L55 83.1069Z" fill="#FF0050"/>
<path d="M48.3129 8.33334V22.6433L46.1579 20.4883C45.8435 20.1847 45.4225 20.0168 44.9855 20.0205C44.5485 20.0243 44.1305 20.1996 43.8215 20.5086C43.5125 20.8177 43.3372 21.2357 43.3334 21.6727C43.3296 22.1097 43.4976 22.5307 43.8012 22.845L48.8012 27.845C48.9564 28.0005 49.1411 28.1235 49.3445 28.2067C49.7522 28.3752 50.2101 28.3752 50.6179 28.2067C50.8212 28.1235 51.006 28.0005 51.1612 27.845L56.1612 22.845C56.4648 22.5307 56.6328 22.1097 56.629 21.6727C56.6252 21.2357 56.4499 20.8177 56.1409 20.5086C55.8319 20.1996 55.4139 20.0243 54.9769 20.0205C54.5399 20.0168 54.1189 20.1847 53.8045 20.4883L51.6462 22.6433V8.33334C51.6462 7.89131 51.4706 7.46739 51.158 7.15483C50.8455 6.84227 50.4216 6.66667 49.9795 6.66667C49.5375 6.66667 49.1136 6.84227 48.801 7.15483C48.4885 7.46739 48.3129 7.89131 48.3129 8.33334Z" fill="black"/>
<path d="M1.66667 70H15.9767L13.8217 72.155C13.6625 72.3088 13.5355 72.4927 13.4482 72.696C13.3608 72.8994 13.3148 73.1181 13.3129 73.3394C13.311 73.5607 13.3532 73.7801 13.437 73.9849C13.5208 74.1898 13.6445 74.3759 13.801 74.5323C13.9575 74.6888 14.1436 74.8126 14.3484 74.8964C14.5532 74.9802 14.7727 75.0224 14.994 75.0204C15.2153 75.0185 15.434 74.9725 15.6373 74.8852C15.8407 74.7978 16.0246 74.6709 16.1783 74.5117L21.1783 69.5117C21.3339 69.3565 21.4568 69.1717 21.54 68.9684C21.7085 68.5606 21.7085 68.1027 21.54 67.695C21.4568 67.4916 21.3339 67.3069 21.1783 67.1517L16.1783 62.1517C15.864 61.8481 15.443 61.6801 15.006 61.6839C14.569 61.6877 14.151 61.863 13.842 62.172C13.533 62.481 13.3577 62.899 13.3539 63.336C13.3501 63.773 13.5181 64.194 13.8217 64.5084L15.9767 66.6667H1.66667C1.22464 66.6667 0.800716 66.8423 0.488155 67.1548C0.175595 67.4674 0 67.8913 0 68.3334C0 68.7754 0.175595 69.1993 0.488155 69.5119C0.800716 69.8244 1.22464 70 1.66667 70Z" fill="black"/>
<path d="M98.3333 66.6667H84.0233L86.1783 64.5117C86.4819 64.1973 86.6499 63.7763 86.6461 63.3393C86.6423 62.9023 86.467 62.4843 86.158 62.1753C85.849 61.8663 85.431 61.691 84.994 61.6872C84.557 61.6834 84.136 61.8514 83.8216 62.155L78.8216 67.155C78.6661 67.3102 78.5432 67.4949 78.46 67.6983C78.2915 68.106 78.2915 68.5639 78.46 68.9717C78.5432 69.175 78.6661 69.3598 78.8216 69.515L83.8216 74.515C84.136 74.8186 84.557 74.9866 84.994 74.9828C85.431 74.979 85.849 74.8037 86.158 74.4947C86.467 74.1857 86.6423 73.7677 86.6461 73.3307C86.6499 72.8937 86.4819 72.4727 86.1783 72.1583L84.0233 70H98.3333C98.7753 70 99.1993 69.8244 99.5118 69.5118C99.8244 69.1993 100 68.7753 100 68.3333C100 67.8913 99.8244 67.4674 99.5118 67.1548C99.1993 66.8422 98.7753 66.6667 98.3333 66.6667Z" fill="black"/>
<path d="M132.887 52.0945C132.745 50.6622 132.135 49.5495 131.058 48.7564C129.981 47.9633 128.519 47.5668 126.673 47.5668C125.418 47.5668 124.358 47.7443 123.494 48.0994C122.63 48.4427 121.967 48.9221 121.506 49.5376C121.056 50.1532 120.831 50.8516 120.831 51.6328C120.807 52.2839 120.943 52.852 121.239 53.3374C121.547 53.8227 121.967 54.2429 122.5 54.598C123.033 54.9413 123.648 55.2431 124.347 55.5036C125.045 55.7521 125.791 55.9652 126.584 56.1428L129.851 56.924C131.437 57.2791 132.893 57.7526 134.219 58.3445C135.545 58.9363 136.693 59.6643 137.663 60.5284C138.634 61.3925 139.386 62.4105 139.918 63.5824C140.463 64.7543 140.741 66.0978 140.753 67.6129C140.741 69.8383 140.173 71.7678 139.048 73.4013C137.936 75.023 136.326 76.2836 134.219 77.1832C132.124 78.071 129.596 78.5149 126.637 78.5149C123.701 78.5149 121.145 78.0651 118.967 77.1655C116.8 76.2659 115.108 74.9342 113.888 73.1705C112.681 71.3949 112.048 69.1991 111.989 66.5831H119.428C119.511 67.8023 119.86 68.8203 120.476 69.6371C121.103 70.442 121.938 71.0516 122.979 71.4659C124.033 71.8684 125.223 72.0696 126.548 72.0696C127.85 72.0696 128.981 71.8802 129.94 71.5014C130.91 71.1226 131.662 70.5959 132.195 69.9212C132.727 69.2464 132.994 68.4711 132.994 67.5952C132.994 66.7784 132.751 66.0919 132.266 65.5355C131.792 64.9792 131.094 64.5057 130.17 64.1151C129.259 63.7244 128.14 63.3693 126.815 63.0497L122.855 62.0554C119.789 61.3097 117.369 60.1437 115.593 58.5575C113.817 56.9714 112.936 54.8348 112.947 52.1477C112.936 49.946 113.522 48.0225 114.705 46.3771C115.901 44.7318 117.54 43.4474 119.624 42.5241C121.707 41.6009 124.074 41.1392 126.726 41.1392C129.425 41.1392 131.78 41.6009 133.793 42.5241C135.817 43.4474 137.391 44.7318 138.516 46.3771C139.64 48.0225 140.22 49.9283 140.256 52.0945H132.887ZM158.105 78.5327C155.347 78.5327 152.961 77.9467 150.949 76.7749C148.949 75.5911 147.404 73.9458 146.315 71.8388C145.226 69.7199 144.681 67.2637 144.681 64.4702C144.681 61.6529 145.226 59.1908 146.315 57.0838C147.404 54.965 148.949 53.3196 150.949 52.1477C152.961 50.964 155.347 50.3722 158.105 50.3722C160.863 50.3722 163.242 50.964 165.242 52.1477C167.255 53.3196 168.805 54.965 169.894 57.0838C170.983 59.1908 171.528 61.6529 171.528 64.4702C171.528 67.2637 170.983 69.7199 169.894 71.8388C168.805 73.9458 167.255 75.5911 165.242 76.7749C163.242 77.9467 160.863 78.5327 158.105 78.5327ZM158.14 72.6733C159.395 72.6733 160.442 72.3182 161.283 71.608C162.123 70.8859 162.757 69.9034 163.183 68.6605C163.621 67.4176 163.84 66.0031 163.84 64.4169C163.84 62.8307 163.621 61.4162 163.183 60.1733C162.757 58.9304 162.123 57.9479 161.283 57.2259C160.442 56.5038 159.395 56.1428 158.14 56.1428C156.874 56.1428 155.808 56.5038 154.944 57.2259C154.092 57.9479 153.447 58.9304 153.009 60.1733C152.583 61.4162 152.369 62.8307 152.369 64.4169C152.369 66.0031 152.583 67.4176 153.009 68.6605C153.447 69.9034 154.092 70.8859 154.944 71.608C155.808 72.3182 156.874 72.6733 158.14 72.6733ZM176.446 78V50.7273H183.779V55.4858H184.063C184.561 53.7931 185.395 52.5147 186.567 51.6506C187.739 50.7746 189.088 50.3366 190.615 50.3366C190.994 50.3366 191.402 50.3603 191.84 50.4077C192.278 50.455 192.663 50.5201 192.994 50.603V57.3146C192.639 57.2081 192.148 57.1134 191.521 57.0305C190.893 56.9477 190.319 56.9062 189.798 56.9062C188.686 56.9062 187.691 57.1489 186.816 57.6342C185.951 58.1077 185.265 58.7706 184.756 59.6229C184.259 60.4751 184.01 61.4576 184.01 62.5703V78H176.446ZM207.958 78.5327C205.2 78.5327 202.815 77.9467 200.803 76.7749C198.802 75.5911 197.257 73.9458 196.168 71.8388C195.079 69.7199 194.535 67.2637 194.535 64.4702C194.535 61.6529 195.079 59.1908 196.168 57.0838C197.257 54.965 198.802 53.3196 200.803 52.1477C202.815 50.964 205.2 50.3722 207.958 50.3722C210.716 50.3722 213.095 50.964 215.096 52.1477C217.108 53.3196 218.659 54.965 219.748 57.0838C220.837 59.1908 221.381 61.6529 221.381 64.4702C221.381 67.2637 220.837 69.7199 219.748 71.8388C218.659 73.9458 217.108 75.5911 215.096 76.7749C213.095 77.9467 210.716 78.5327 207.958 78.5327ZM207.994 72.6733C209.248 72.6733 210.296 72.3182 211.136 71.608C211.977 70.8859 212.61 69.9034 213.036 68.6605C213.474 67.4176 213.693 66.0031 213.693 64.4169C213.693 62.8307 213.474 61.4162 213.036 60.1733C212.61 58.9304 211.977 57.9479 211.136 57.2259C210.296 56.5038 209.248 56.1428 207.994 56.1428C206.727 56.1428 205.662 56.5038 204.798 57.2259C203.945 57.9479 203.3 58.9304 202.862 60.1733C202.436 61.4162 202.223 62.8307 202.223 64.4169C202.223 66.0031 202.436 67.4176 202.862 68.6605C203.3 69.9034 203.945 70.8859 204.798 71.608C205.662 72.3182 206.727 72.6733 207.994 72.6733ZM226.442 78V41.6364H241.001C243.677 41.6364 245.908 42.0329 247.695 42.826C249.483 43.6191 250.826 44.7199 251.726 46.1286C252.625 47.5253 253.075 49.1352 253.075 50.9581C253.075 52.3786 252.791 53.6274 252.223 54.7045C251.655 55.7699 250.874 56.6458 249.879 57.3324C248.897 58.0071 247.772 58.4865 246.506 58.7706V59.1257C247.891 59.1849 249.187 59.5755 250.394 60.2976C251.613 61.0196 252.602 62.0317 253.359 63.3338C254.117 64.6241 254.496 66.1629 254.496 67.9503C254.496 69.8797 254.016 71.602 253.058 73.1172C252.111 74.6205 250.708 75.8101 248.849 76.6861C246.991 77.562 244.701 78 241.978 78H226.442ZM234.13 71.7145H240.398C242.54 71.7145 244.103 71.3061 245.085 70.4893C246.068 69.6607 246.559 68.5599 246.559 67.1868C246.559 66.1806 246.316 65.2929 245.831 64.5234C245.346 63.754 244.653 63.1503 243.754 62.7124C242.866 62.2744 241.806 62.0554 240.575 62.0554H234.13V71.7145ZM234.13 56.853H239.83C240.883 56.853 241.818 56.6695 242.635 56.3026C243.464 55.9238 244.115 55.3911 244.588 54.7045C245.073 54.018 245.316 53.1953 245.316 52.2365C245.316 50.9226 244.848 49.8632 243.913 49.0582C242.99 48.2533 241.676 47.8509 239.972 47.8509H234.13V56.853ZM276.846 66.3878V50.7273H284.41V78H277.148V73.0462H276.863C276.248 74.6442 275.224 75.9285 273.792 76.8991C272.371 77.8698 270.637 78.3551 268.589 78.3551C266.766 78.3551 265.162 77.9408 263.778 77.1122C262.393 76.2836 261.309 75.1058 260.528 73.5788C259.759 72.0518 259.368 70.223 259.356 68.0923V50.7273H266.92V66.7429C266.932 68.3527 267.364 69.6252 268.216 70.5604C269.069 71.4955 270.211 71.9631 271.643 71.9631C272.555 71.9631 273.407 71.7559 274.2 71.3416C274.993 70.9155 275.632 70.2881 276.118 69.4595C276.615 68.6309 276.858 67.607 276.846 66.3878ZM290.46 78V50.7273H298.024V78H290.46ZM294.26 47.2116C293.135 47.2116 292.17 46.8388 291.365 46.093C290.572 45.3355 290.176 44.4299 290.176 43.3764C290.176 42.3348 290.572 41.4411 291.365 40.6953C292.17 39.9377 293.135 39.5589 294.26 39.5589C295.384 39.5589 296.343 39.9377 297.136 40.6953C297.941 41.4411 298.343 42.3348 298.343 43.3764C298.343 44.4299 297.941 45.3355 297.136 46.093C296.343 46.8388 295.384 47.2116 294.26 47.2116ZM311.647 41.6364V78H304.083V41.6364H311.647ZM327.756 78.4439C325.684 78.4439 323.808 77.9112 322.127 76.8459C320.458 75.7687 319.132 74.1884 318.15 72.1051C317.179 70.0099 316.694 67.4413 316.694 64.3991C316.694 61.2741 317.197 58.6759 318.203 56.6044C319.209 54.5211 320.547 52.9645 322.216 51.9347C323.897 50.893 325.737 50.3722 327.738 50.3722C329.265 50.3722 330.537 50.6326 331.555 51.1534C332.585 51.6624 333.414 52.3016 334.041 53.071C334.68 53.8286 335.166 54.5743 335.497 55.3082H335.728V41.6364H343.274V78H335.817V73.6321H335.497C335.142 74.3897 334.639 75.1413 333.988 75.8871C333.349 76.621 332.514 77.2306 331.484 77.7159C330.466 78.2012 329.223 78.4439 327.756 78.4439ZM330.153 72.4247C331.372 72.4247 332.402 72.0933 333.242 71.4304C334.094 70.7557 334.746 69.8146 335.195 68.6072C335.657 67.3999 335.888 65.9853 335.888 64.3636C335.888 62.742 335.663 61.3333 335.213 60.1378C334.763 58.9422 334.112 58.0189 333.26 57.3679C332.408 56.7169 331.372 56.3913 330.153 56.3913C328.91 56.3913 327.862 56.7287 327.01 57.4034C326.158 58.0781 325.513 59.0133 325.075 60.2088C324.637 61.4044 324.418 62.7893 324.418 64.3636C324.418 65.9498 324.637 67.3525 325.075 68.5717C325.524 69.7791 326.17 70.7261 327.01 71.4126C327.862 72.0874 328.91 72.4247 330.153 72.4247Z" fill="black"/>
</svg>
