<svg width="136" height="136" viewBox="0 0 136 136" fill="none" xmlns="http://www.w3.org/2000/svg">
<path d="M119 35.2467L22.6667 73.6667C22.4411 71.7862 22.3276 69.894 22.3267 68.0001C22.3035 60.8661 23.9942 53.831 27.2567 47.4867C31.0438 40.0232 36.8232 33.7538 43.9545 29.373C51.0858 24.9922 59.2906 22.671 67.66 22.6667C72.816 22.6556 77.935 23.5375 82.79 25.2734" stroke="black" strokeWidth="11.3333" stroke-linecap="round" stroke-linejoin="round"/>
<path d="M53.1533 110.727C63.5362 114.411 74.9056 114.189 85.1363 110.101C95.3671 106.013 103.759 98.3387 108.743 88.5134C112.006 82.1691 113.697 75.134 113.673 68C113.675 66.106 113.561 64.2136 113.333 62.3334L17 100.753" stroke="black" strokeWidth="11.3333" stroke-linecap="round" stroke-linejoin="round"/>
</svg>
